<?xml version="1.0" standalone="no"?>
<!DOCTYPE svg PUBLIC "-//W3C//DTD SVG 20010904//EN"
 "http://www.w3.org/TR/2001/REC-SVG-20010904/DTD/svg10.dtd">
<svg version="1.0" xmlns="http://www.w3.org/2000/svg"
 width="260.000000pt" height="260.000000pt" viewBox="0 0 260.000000 260.000000"
 preserveAspectRatio="xMidYMid meet">
<metadata>
Created by potrace 1.11, written by Peter Selinger 2001-2013
</metadata>
<g transform="translate(0.000000,260.000000) scale(0.100000,-0.100000)"
fill="#000000" stroke="none">
<path d="M1655 2196 c-95 -30 -203 -114 -251 -195 -10 -17 -21 -31 -24 -31 -3
0 -16 19 -30 41 -33 54 -108 121 -167 149 -32 16 -73 25 -125 28 l-78 5 1
-784 0 -784 24 -50 24 -50 -2 218 c-1 119 -1 217 0 217 2 0 40 -61 218 -352
69 -115 130 -208 134 -208 7 0 172 261 287 455 l59 99 3 -232 c1 -139 -2 -240
-7 -251 -6 -10 -30 -28 -53 -39 l-43 -21 73 -1 72 0 0 900 0 900 -37 -1 c-21
0 -56 -6 -78 -13z m-518 -112 c82 -47 158 -159 184 -269 6 -27 13 -56 15 -62
2 -8 20 -13 44 -13 24 0 42 5 44 13 2 6 9 35 15 62 34 146 147 277 259 300
l32 7 0 -495 0 -494 -156 -259 c-86 -143 -164 -271 -173 -286 -9 -16 -18 -28
-21 -28 -5 0 -223 356 -307 503 l-53 91 0 476 c0 262 3 480 7 484 11 11 64 -4
110 -30z"/>
<path d="M1830 1310 l0 -900 115 0 c63 0 115 2 115 5 0 3 -17 12 -37 20 -80
34 -73 -50 -73 862 l0 813 23 0 c23 0 24 -2 30 -127 4 -71 7 -239 7 -375 l0
-248 63 0 c199 1 347 82 415 228 25 54 27 66 27 202 0 141 -1 147 -29 203 -51
101 -149 171 -278 202 -42 10 -117 15 -220 15 l-158 0 0 -900z m319 800 c196
-32 299 -183 262 -387 -29 -166 -150 -263 -311 -251 l-45 3 -3 310 c-1 170 0
315 3 322 5 16 12 16 94 3z"/>
<path d="M94 2177 c51 -33 65 -49 70 -85 9 -52 24 -1360 18 -1506 l-5 -118
-48 -22 c-27 -11 -49 -24 -49 -28 0 -5 49 -8 110 -8 l110 0 2 677 3 677 38
-95 37 -94 0 -583 0 -582 70 0 c39 0 70 3 70 8 -1 4 -20 16 -43 27 l-42 20 -9
96 c-4 53 -4 272 0 493 l9 398 99 -234 c55 -128 153 -361 217 -518 l118 -285
76 -3 c41 -2 75 0 75 3 0 3 -13 31 -29 63 -15 31 -194 429 -396 885 l-367 827
-77 -1 c-63 0 -73 -2 -57 -12z"/>
<path d="M290 2184 c0 -10 612 -1378 622 -1389 4 -5 8 307 8 693 l0 702 -102
-1 c-84 0 -99 -2 -83 -12 10 -7 32 -24 47 -39 l28 -26 0 -499 c-1 -450 -2
-495 -16 -470 -19 35 -274 601 -360 800 -35 81 -64 156 -64 167 0 10 17 32 37
49 l38 31 -78 0 c-42 0 -77 -3 -77 -6z"/>
</g>
</svg>
